<svg xmlns="http://www.w3.org/2000/svg" viewBox="0 0 74.4 76"><path id="bg-logo" d="M66.4 76l-17.9-3.4c-4.3 1.4-9 2-13.9 1.7C15.5 73 .3 57 0 37.8-.3 16.1 17.8-1.4 39.7.1 58.3 1.3 73.3 16.5 74.3 35c.6 11.3-3.8 21.7-11.2 28.9l3.7 11.6c.1.3-.1.5-.4.5z" fill="#3b82f6"/><g fill="#f3f4f6"><path d="M23.6 34c.3 1.1.4 2.2.3 3.2-.1 1-.4 1.9-.9 2.6s-1.2 1.2-2 1.4c-.6.2-1.1.2-1.6 0s-.9-.4-1.2-.8H18c-.6 1.2-1.5 2-2.8 2.3-1.4.4-2.5.2-3.5-.4-1-.6-1.7-1.6-2.1-3-.5-1.6-.4-3.1.4-4.3.8-1.3 2-2.1 3.6-2.6.7-.2 1.4-.3 2.2-.4.6-.1 1.1-.1 1.5-.1.3 0 .6.2.7.6l1.1 5.1c.3 1.1.7 1.5 1.3 1.4.5-.1.8-.6.9-1.4.1-.8 0-1.8-.3-2.9-.3-1.2-.9-2.3-1.6-3.1-.8-.8-1.7-1.3-2.7-1.6-1.1-.2-2.2-.2-3.4.1-1.5.4-2.8 1.1-3.8 2-1 .9-1.6 2.1-1.9 3.5-.3 1.4-.2 2.9.2 4.4.6 2.1 1.6 3.6 3 4.4 1.4.8 3.2 1 5.4.4.8-.2 1.7-.5 2.6-1 .6-.3 1.2-.6 1.8-1 .4-.3 1 0 1.1.4l.2.7c.1.3 0 .6-.3.8-1.4 1-3 1.7-4.8 2.2-2.9.8-5.4.6-7.4-.5s-3.4-3-4.2-5.7c-.5-1.9-.6-3.7-.1-5.5.4-1.8 1.3-3.3 2.6-4.6 1.3-1.3 3-2.2 5-2.7 1.7-.5 3.3-.5 4.8-.2s2.8 1 3.9 2.1c1 1.2 1.7 2.6 2.2 4.2zm-11.4 4.6c.4 1.6 1.3 2.3 2.6 1.9.7-.2 1.2-.6 1.4-1.2.2-.6.2-1.4 0-2.6l-.4-1.9c-.1-.4-.4-.6-.8-.6-.2 0-.4.1-.7.1-1 .3-1.6.8-2 1.5-.4.9-.4 1.8-.1 2.8zM40.1 47.2h-2.9c-.5 0-1-.4-1-1v-9.3c0-1.3-.2-2.2-.6-2.9-.4-.6-1.1-1-2-1-1.2 0-2.1.5-2.7 1.4-.6.9-.8 2.4-.8 4.5v7.3c0 .5-.4 1-1 1h-2.9c-.5 0-1-.4-1-1V30.5c0-.5.4-1 1-1h2c.4 0 .8.3.9.7l.4 1.5h.3c.5-.8 1.2-1.4 2-1.9.9-.5 1.9-.7 3.1-.7 2.6 0 4.4.9 5.4 2.6h.4c.5-.8 1.2-1.5 2.1-1.9.9-.5 2-.7 3.1-.7 2 0 3.5.5 4.5 1.5s1.5 2.7 1.5 4.9V46c0 .5-.4 1-1 1H48c-.5 0-1-.4-1-1v-9.3c0-1.3-.2-2.2-.6-2.9s-1.1-1-2-1c-1.2 0-2.1.4-2.6 1.3s-.9 2.2-.9 4V46c.2.7-.2 1.2-.8 1.2zM62.4 47.5c-2.8 0-5-.8-6.6-2.3-1.6-1.6-2.4-3.8-2.4-6.6 0-2.9.7-5.2 2.2-6.8 1.5-1.6 3.5-2.4 6.1-2.4 2.5 0 4.4.7 5.8 2.1s2.1 3.4 2.1 5.9v1.4c0 .5-.4 1-1 1h-9.3c-.6 0-1.1.6-.9 1.2.2.8.5 1.5 1.1 2 .8.8 1.8 1.1 3.2 1.1 1.1 0 2.1-.1 3-.3.5-.1 1.1-.3 1.6-.5.6-.2 1.3.2 1.3.9v1.6c0 .4-.2.7-.6.9-.7.3-1.4.5-2.1.7-1 0-2.1.1-3.5.1zm-.7-14.8c-1 0-1.8.3-2.4 1-.4.4-.6.9-.8 1.5-.2.6.3 1.3.9 1.3H64c.6 0 1.1-.6 1-1.2-.1-.6-.4-1.1-.8-1.6-.7-.7-1.5-1-2.5-1z"/></g></svg>