<svg xmlns="http://www.w3.org/2000/svg" viewBox="0 0 74.4 76">
	<path fill="#3B82F6"
		d="M8 76l17.9-3.4c4.3 1.4 9 2 13.9 1.7C58.9 73 74.1 57 74.4 37.8 74.7 16.1 56.6-1.4 34.7.1 16.1 1.3 1.1 16.5.1 35c-.6 11.3 3.8 21.7 11.2 28.9L7.6 75.5c-.1.3.1.5.4.5z" />
	<g fill="#F3F4F6">
		<path
			d="M55.4 42.6c-2 0-3.6-.6-4.8-1.7s-1.7-2.7-1.7-4.8c0-2.1.5-3.8 1.6-4.9 1.1-1.2 2.5-1.7 4.4-1.7 1.8 0 3.2.5 4.2 1.5s1.5 2.4 1.5 4.2v1c0 .4-.3.7-.7.7h-6.7c-.5 0-.8.4-.7.9.1.6.4 1.1.8 1.4.5.6 1.3.8 2.3.8.8 0 1.5-.1 2.2-.2.4-.1.8-.2 1.2-.4.5-.2 1 .2 1 .7v1.2c0 .3-.2.5-.4.6-.5.2-1 .4-1.5.5-.9.1-1.7.2-2.7.2zm-.5-10.7c-.7 0-1.3.2-1.7.7-.3.3-.4.6-.6 1.1-.1.5.2.9.7.9h3.3c.5 0 .8-.4.7-.9-.1-.5-.3-.8-.6-1.1-.5-.5-1.1-.7-1.8-.7zM39.3 42.4h-2.1c-.4 0-.7-.3-.7-.7V35c0-.9-.2-1.6-.5-2.1s-.8-.7-1.4-.7c-.9 0-1.5.3-1.9 1s-.6 1.7-.6 3.2v5.3c0 .4-.3.7-.7.7h-2.1c-.4 0-.7-.3-.7-.7V30.3c0-.4.3-.7.7-.7h1.4c.3 0 .6.2.7.5l.3 1.1h.2c.3-.6.8-1 1.5-1.4.6-.3 1.4-.5 2.2-.5 1.9 0 3.2.6 3.9 1.9h.3c.3-.6.8-1 1.5-1.4s1.4-.5 2.2-.5c1.4 0 2.5.4 3.3 1.1.7.7 1.1 1.9 1.1 3.6v7.6c0 .4-.3.7-.7.7h-2.1c-.4 0-.7-.3-.7-.7v-6.7c0-.9-.2-1.6-.5-2.1s-.8-.7-1.4-.7c-.8 0-1.5.3-1.9.9-.4.7-.6 1.7-.6 3v5.7c0 .3-.3.7-.7.7zM27.3 32.9c.2.8.3 1.6.2 2.3-.1.7-.3 1.3-.7 1.8-.4.5-.9.8-1.5 1-.4.1-.8.1-1.2 0-.4-.1-.7-.3-.9-.6h-.1c-.4.9-1.1 1.4-2 1.7-1 .3-1.8.2-2.6-.3-.7-.4-1.2-1.2-1.5-2.2-.3-1.2-.2-2.2.4-3.1.6-.9 1.4-1.5 2.6-1.9.5-.1 1-.2 1.6-.3.4 0 .8-.1 1.1-.1.2 0 .5.2.5.4l.8 3.7c.2.8.5 1.1.9 1 .4-.1.6-.4.6-1 .1-.6 0-1.3-.2-2.1-.2-.9-.6-1.6-1.2-2.2-.6-.6-1.2-1-2-1.1-.8-.2-1.6-.2-2.4.1-1.1.3-2 .8-2.7 1.5-.5.7-1 1.5-1.2 2.5-.2 1-.2 2 .1 3.2.4 1.5 1.1 2.6 2.2 3.2 1 .6 2.3.7 3.9.3.6-.2 1.2-.4 1.9-.7.5-.2.9-.5 1.3-.7.3-.2.7 0 .8.3l.1.5c.1.2 0 .4-.2.6-1 .7-2.1 1.2-3.5 1.6-2.1.6-3.9.4-5.4-.3-1.5-.8-2.5-2.2-3-4.1-.4-1.4-.4-2.7-.1-4 .3-1.3.9-2.4 1.9-3.3.9-.9 2.1-1.6 3.6-2 1.2-.3 2.4-.4 3.5-.1 1.1.2 2 .8 2.8 1.5.8.7 1.3 1.7 1.6 2.9zm-8.2 3.3c.3 1.2.9 1.6 1.9 1.4.5-.1.8-.4 1-.8.2-.4.2-1 0-1.8l-.3-1.4c-.1-.3-.3-.5-.6-.4-.2 0-.3.1-.5.1-.7.2-1.2.5-1.4 1.1-.2.4-.3 1-.1 1.8z" />
	</g>
</svg>