<?xml version="1.0" encoding="utf-8"?>
<!-- Generator: Adobe Illustrator 19.0.0, SVG Export Plug-In . SVG Version: 6.00 Build 0)  -->
<svg version="1.1" id="Layer_1" xmlns="http://www.w3.org/2000/svg" xmlns:xlink="http://www.w3.org/1999/xlink" x="0px" y="0px"
	 viewBox="0 0 84.3 25.9" style="enable-background:new 0 0 84.3 25.9;" xml:space="preserve" fill="#1F2937">
<path id="XMLID_10_" d="M24.4,8.4c0.4,1.4,0.5,2.8,0.4,4.1c-0.1,1.3-0.5,2.4-1.2,3.3s-1.5,1.5-2.6,1.8c-0.7,0.2-1.4,0.2-2.1,0
	c-0.7-0.2-1.2-0.6-1.6-1.1L17,16.7c-0.7,1.6-1.9,2.6-3.6,3c-1.8,0.5-3.3,0.3-4.6-0.5c-1.3-0.8-2.2-2.1-2.7-4c-0.6-2.1-0.4-4,0.6-5.6
	c1-1.6,2.6-2.8,4.7-3.3c0.9-0.2,1.8-0.4,2.9-0.5c0.7-0.1,1.4-0.1,1.9-0.1c0.4,0,0.8,0.3,0.9,0.8l1.5,6.7c0.4,1.4,0.9,2,1.7,1.8
	c0.6-0.2,1-0.8,1.2-1.8s0-2.3-0.4-3.8c-0.4-1.6-1.1-2.9-2.1-4c-1-1.1-2.2-1.7-3.6-2.1C14,2.9,12.5,2.9,11,3.3C9,3.9,7.3,4.8,6,6
	C4.8,7.2,4,8.7,3.6,10.5c-0.4,1.8-0.3,3.7,0.3,5.7c0.7,2.8,2,4.7,3.9,5.8c1.9,1.1,4.2,1.2,7,0.5c1.1-0.3,2.2-0.7,3.4-1.3
	c0.8-0.4,1.6-0.8,2.4-1.3c0.5-0.3,1.3-0.1,1.4,0.6l0.3,1c0.1,0.4,0,0.8-0.4,1c-1.8,1.3-3.9,2.2-6.2,2.9c-3.8,1-7,0.8-9.7-0.6
	c-2.7-1.4-4.5-3.9-5.4-7.5c-0.7-2.5-0.7-4.9-0.2-7.2c0.5-2.3,1.7-4.3,3.4-6c1.7-1.7,3.8-2.9,6.5-3.6c2.2-0.6,4.3-0.7,6.2-0.2
	c2,0.4,3.6,1.4,5,2.8C22.8,4.4,23.8,6.2,24.4,8.4z M9.6,14.4c0.6,2.1,1.7,2.9,3.4,2.5c0.9-0.2,1.5-0.7,1.8-1.5
	c0.3-0.8,0.3-1.9,0-3.3l-0.5-2.5c-0.1-0.5-0.6-0.8-1.1-0.8c-0.3,0-0.6,0.1-0.9,0.2c-1.2,0.3-2.1,1-2.6,1.9C9.3,11.9,9.2,13,9.6,14.4
	z"/>
<path id="XMLID_34_" d="M46,25.5h-3.7c-0.7,0-1.3-0.6-1.3-1.3V12.1c0-1.7-0.3-2.9-0.8-3.7s-1.4-1.2-2.6-1.2c-1.6,0-2.8,0.6-3.5,1.8
	S33,12,33,14.7v9.5c0,0.7-0.6,1.3-1.3,1.3H28c-0.7,0-1.3-0.6-1.3-1.3V3.9c0-0.7,0.6-1.3,1.3-1.3h2.6c0.6,0,1.1,0.4,1.2,0.9l0.6,2
	h0.3c0.6-1.1,1.5-1.9,2.7-2.5c1.2-0.6,2.5-0.9,4-0.9c3.4,0,5.8,1.1,7,3.4h0.6c0.6-1.1,1.5-1.9,2.7-2.5s2.5-0.9,4.1-0.9
	c2.6,0,4.6,0.7,5.9,2s2,3.5,2,6.4v13.7c0,0.7-0.6,1.3-1.3,1.3h-3.7c-0.7,0-1.3-0.6-1.3-1.3V12.1c0-1.7-0.3-2.9-0.8-3.7
	S53,7.2,51.8,7.2c-1.5,0-2.7,0.5-3.4,1.6s-1.1,2.8-1.1,5.2v10.2C47.2,25,46.7,25.5,46,25.5z"/>
<path id="XMLID_36_" d="M75,25.9c-3.7,0-6.6-1-8.7-3.1s-3.1-4.9-3.1-8.7c0-3.8,1-6.8,2.9-8.9s4.6-3.1,8-3.1c3.2,0,5.8,0.9,7.6,2.8
	s2.7,4.4,2.7,7.6v1.8c0,0.7-0.6,1.3-1.3,1.3H71c-0.8,0-1.4,0.8-1.2,1.6c0.2,1,0.7,1.9,1.4,2.6c1,1,2.4,1.5,4.1,1.5
	c1.4,0,2.7-0.1,3.9-0.4c0.7-0.2,1.4-0.4,2.1-0.6c0.8-0.3,1.7,0.3,1.7,1.2v2.1c0,0.5-0.3,1-0.7,1.2c-0.9,0.4-1.8,0.7-2.8,0.9
	C78.3,25.8,76.8,25.9,75,25.9z M74.1,6.6c-1.3,0-2.4,0.4-3.1,1.3c-0.5,0.5-0.8,1.2-1,1.9c-0.2,0.8,0.4,1.6,1.2,1.6H77
	c0.8,0,1.4-0.8,1.2-1.6c-0.2-0.8-0.5-1.5-1-2C76.5,7,75.4,6.6,74.1,6.6z"/>
</svg>
