<svg xmlns="http://www.w3.org/2000/svg" width="77.4" height="79"><path fill="none" stroke="#3B82F6" stroke-width="3" stroke-linecap="round" stroke-linejoin="round" stroke-miterlimit="10" d="M11 13.9c-5.5 6.1-9 14-9.5 22.6-.6 11.4 3.9 21.7 11.3 28.9L9.1 77c-.1.3.1.5.4.5l17.9-3.4c4.3 1.4 9 2 13.9 1.7 4.4-.3 8.5-1.3 12.4-3m8.3-5.2c8.3-6.7 13.7-17 13.9-28.3C76.2 17.6 58.1.1 36.2 1.6c-5.9.4-11.5 2.2-16.3 5"/><path d="M30.5 35.9c0 1.7-.3 3-1 4s-1.6 1.5-2.7 1.5c-.6 0-1.2-.2-1.6-.6-.4-.4-.6-.9-.7-1.6h0c-.3.7-.8 1.3-1.4 1.6-.6.4-1.3.6-2.1.6-1.1 0-1.9-.4-2.5-1.1-.6-.7-.9-1.7-.9-3 0-1.5.4-2.7 1.3-3.6.9-.9 2-1.4 3.4-1.4 1 0 2 .1 3.1.4l-.2 5.1v.3c0 .8.1 1.3.4 1.7.3.4.7.6 1.3.6.7 0 1.4-.4 1.8-1.3.5-.8.7-2 .7-3.3 0-1.4-.3-2.6-.9-3.7-.6-1.1-1.4-1.9-2.5-2.5-1.1-.6-2.3-.9-3.7-.9-1.7 0-3.1.4-4.4 1.1-1.3.7-2.3 1.7-2.9 3.1-.7 1.3-1 2.8-1 4.6 0 2.3.6 4.2 1.8 5.4 1.2 1.3 2.9 1.9 5.2 1.9.7 0 1.4-.1 2.1-.2.7-.1 1.5-.4 2.5-.8v1.1c-1.5.6-3 .9-4.5.9-2.5 0-4.5-.7-5.9-2.2s-2.1-3.5-2.1-6.1c0-1.9.4-3.5 1.2-5 .8-1.5 1.9-2.6 3.4-3.5s3.1-1.2 4.9-1.2c1.6 0 2.9.3 4.2 1 1.2.6 2.1 1.6 2.8 2.8.6 1.3.9 2.7.9 4.3zm-11.6 1.5c0 1 .2 1.8.6 2.3.4.5 1 .8 1.9.8 1.9 0 2.8-1.3 3-3.8l.2-3.2c-.6-.2-1.3-.3-2.1-.3-1.1 0-1.9.4-2.6 1.1-.7.8-1 1.8-1 3.1zm29.7 6.4V36c0-1.2-.2-2-.7-2.5-.5-.5-1.1-.8-2.1-.8-1.2 0-2.1.3-2.7 1-.6.7-.9 1.7-.9 3.2v7h-1.1v-8.1c0-2-.9-3-2.8-3-1.2 0-2.1.4-2.7 1.1-.6.7-.9 1.9-.9 3.5v6.5h-1.1V32h.9l.2 1.6h.1c.3-.6.8-1 1.4-1.4.6-.3 1.3-.5 2-.5 1.9 0 3.1.7 3.6 2.1h0c.4-.7.9-1.2 1.6-1.6.7-.4 1.4-.5 2.2-.5 1.3 0 2.3.3 2.9 1 .6.7 1 1.8 1 3.3v7.8h-.9zm9.7.3c-1.7 0-3.1-.5-4-1.6s-1.4-2.6-1.4-4.5.5-3.4 1.4-4.5c.9-1.1 2.2-1.7 3.8-1.7 1.4 0 2.5.5 3.3 1.5.8 1 1.2 2.3 1.2 4v.9h-8.5c0 1.6.4 2.9 1.1 3.7.7.9 1.8 1.3 3.2 1.3.7 0 1.3 0 1.8-.1s1.2-.3 1.9-.6v1c-.7.3-1.3.5-1.9.6-.6-.1-1.2 0-1.9 0zM58 32.7c-1.1 0-2.1.4-2.8 1.1s-1.1 1.8-1.2 3.3h7.3c0-1.4-.3-2.5-.9-3.2-.6-.8-1.4-1.2-2.4-1.2z" fill="none" stroke="#3B82F6" stroke-width="2" stroke-linecap="round" stroke-linejoin="round" stroke-miterlimit="10"/></svg>